<?xml version="1.0" standalone="no"?>
<!DOCTYPE svg PUBLIC "-//W3C//DTD SVG 20010904//EN"
 "http://www.w3.org/TR/2001/REC-SVG-20010904/DTD/svg10.dtd">
<svg version="1.0" xmlns="http://www.w3.org/2000/svg"
 width="983.000000pt" height="760.000000pt" viewBox="0 0 983.000000 760.000000"
 preserveAspectRatio="xMidYMid meet">

<g transform="translate(0.000000,760.000000) scale(0.100000,-0.100000)"
fill="#000000" stroke="none">
<path d="M4630 6879 c-154 -180 -290 -336 -400 -460 -125 -140 -199 -225 -270
-309 -35 -41 -84 -98 -109 -126 -25 -28 -68 -77 -96 -109 -27 -33 -86 -100
-130 -150 -44 -49 -109 -124 -145 -165 -35 -41 -85 -98 -110 -125 -25 -28 -58
-66 -75 -85 -16 -19 -56 -65 -89 -102 -33 -39 -56 -74 -53 -82 6 -15 42 -33
347 -174 209 -96 225 -102 232 -83 2 5 23 31 47 58 180 195 229 249 326 363
114 133 156 180 380 426 28 30 146 164 176 198 65 76 76 86 96 86 11 0 30 -12
43 -27 13 -16 39 -46 59 -68 20 -22 56 -64 81 -94 25 -29 50 -59 55 -65 6 -6
41 -47 79 -91 38 -44 92 -105 120 -136 28 -31 87 -98 131 -150 44 -51 103
-119 130 -150 28 -31 57 -64 65 -75 9 -10 45 -53 81 -94 36 -41 76 -88 90
-104 13 -16 29 -34 34 -40 6 -6 37 -42 71 -81 33 -38 112 -128 174 -200 63
-71 124 -141 136 -155 12 -14 46 -52 75 -86 30 -33 103 -118 164 -190 60 -71
112 -131 115 -134 3 -3 34 -39 70 -80 36 -41 70 -80 75 -86 13 -14 127 -143
185 -210 25 -28 77 -89 115 -134 39 -46 75 -88 80 -94 6 -6 39 -45 75 -86 36
-41 67 -77 70 -80 15 -14 293 -334 335 -385 28 -33 82 -96 120 -140 39 -45 97
-112 130 -150 126 -145 197 -220 208 -220 8 0 16 45 24 135 11 137 23 251 48
505 8 77 19 185 25 240 5 55 16 165 25 245 8 80 24 242 35 360 11 118 25 260
30 315 34 333 52 508 65 645 8 85 19 198 25 250 5 52 16 174 25 270 8 96 19
213 25 260 21 197 21 196 8 208 -10 8 -33 2 -93 -27 -44 -21 -143 -69 -220
-106 -77 -37 -171 -82 -210 -100 -38 -18 -155 -75 -260 -127 -104 -51 -228
-111 -275 -132 -79 -37 -147 -69 -447 -212 -77 -36 -113 -59 -113 -70 0 -9 28
-46 63 -83 34 -36 116 -129 182 -206 116 -136 161 -185 170 -185 3 0 38 15 77
34 136 63 233 108 304 142 39 19 81 34 94 34 21 0 22 -3 16 -44 -7 -42 -11
-93 -36 -371 -5 -60 -16 -186 -25 -280 -8 -93 -15 -173 -15 -177 0 -5 -8 -8
-18 -8 -18 0 -140 135 -416 460 -82 96 -152 177 -155 180 -10 8 -227 254 -320
363 -46 54 -96 112 -111 130 -120 139 -181 209 -221 252 -72 78 -191 214 -224
255 -37 47 -173 204 -325 374 -123 138 -226 257 -275 315 -16 20 -49 57 -73
82 -24 26 -53 60 -65 76 -12 17 -49 61 -83 99 -34 38 -130 148 -215 244 -84
96 -168 190 -185 209 l-31 34 -123 -144z"/>
<path d="M1233 5874 c-3 -9 -1 -69 6 -133 6 -64 18 -181 26 -261 8 -80 20
-183 25 -230 12 -95 26 -240 40 -407 5 -61 12 -122 15 -135 3 -13 10 -70 15
-128 5 -58 17 -172 25 -255 20 -195 43 -424 55 -550 5 -55 16 -163 25 -240 9
-77 29 -268 45 -425 16 -157 36 -350 45 -430 8 -80 15 -162 15 -182 0 -20 5
-40 12 -44 12 -8 15 -5 188 192 137 155 460 524 575 657 28 32 67 77 89 100
21 23 61 69 89 102 28 33 78 92 112 130 110 123 239 271 265 301 46 54 145
169 167 194 18 19 20 27 10 36 -6 6 -131 62 -277 124 -146 62 -270 117 -277
122 -7 6 -16 8 -21 6 -5 -1 -44 -44 -88 -93 -208 -237 -330 -365 -344 -363
-11 3 -18 30 -27 113 -75 683 -81 755 -64 755 7 0 72 -29 144 -64 128 -62 218
-104 322 -151 94 -43 215 -98 370 -170 44 -21 98 -45 120 -55 22 -10 63 -28
90 -40 28 -13 75 -34 105 -48 54 -24 123 -56 305 -142 50 -23 122 -57 160 -75
84 -39 205 -96 338 -159 53 -25 99 -46 101 -46 4 0 97 -42 201 -90 177 -82
237 -110 241 -110 5 0 230 -106 256 -120 32 -18 56 -11 200 59 79 38 179 85
223 106 682 319 1015 481 1015 495 0 8 -223 279 -309 375 -15 17 -42 49 -61
73 -18 23 -41 42 -49 42 -9 0 -153 -65 -320 -145 -167 -80 -305 -145 -307
-145 -2 0 -85 -40 -185 -90 -99 -49 -191 -90 -204 -90 -13 0 -91 34 -174 75
-83 41 -153 75 -155 75 -4 0 -272 127 -559 264 -76 36 -140 66 -141 66 -2 0
-75 34 -162 76 -88 42 -204 98 -259 124 -55 26 -261 125 -459 219 -197 94
-360 171 -362 171 -2 0 -57 25 -122 56 -64 31 -148 71 -187 89 -38 18 -164 79
-280 135 -115 56 -254 122 -308 146 -54 24 -148 69 -208 99 -61 30 -113 55
-115 55 -3 0 -7 -7 -11 -16z"/>
<path d="M2175 2099 c-168 -21 -294 -122 -355 -284 -28 -76 -39 -245 -21 -337
39 -197 177 -330 374 -360 155 -24 302 18 403 114 71 67 99 115 124 213 36
142 22 312 -36 427 -84 166 -276 255 -489 227z m205 -227 c33 -20 53 -43 75
-87 28 -55 30 -65 30 -174 -1 -129 -16 -180 -71 -234 -48 -48 -83 -61 -159
-61 -76 0 -111 13 -159 61 -56 54 -71 105 -71 233 0 106 2 119 28 173 31 62
79 102 139 118 56 14 139 1 188 -29z"/>
<path d="M494 2075 c-5 -12 153 -701 207 -908 l10 -38 116 3 117 3 80 303 c44
166 83 302 86 302 4 0 43 -136 87 -302 l80 -303 116 -3 c65 -1 117 0 117 4 0
4 50 213 111 465 61 252 109 465 106 474 -5 12 -26 15 -112 15 -58 0 -105 -3
-105 -6 0 -11 -122 -559 -125 -562 -1 -1 -30 109 -64 245 -34 136 -66 265 -72
286 l-10 38 -126 -3 -126 -3 -73 -273 c-40 -151 -74 -276 -76 -278 -2 -2 -28
106 -57 239 -29 133 -57 259 -62 280 l-10 37 -105 0 c-84 0 -106 -3 -110 -15z"/>
<path d="M2872 2078 c-17 -17 -17 -919 0 -936 17 -17 182 -16 197 1 7 9 12
101 13 269 l3 255 165 -268 165 -269 101 0 c65 0 104 4 112 12 17 17 17 919 0
936 -17 17 -182 16 -197 -1 -7 -9 -12 -103 -13 -277 l-3 -264 -170 277 -169
277 -96 0 c-61 0 -100 -4 -108 -12z"/>
<path d="M3835 2078 c-3 -7 -4 -222 -3 -478 l3 -465 220 -3 c298 -4 372 14
464 113 88 96 128 233 118 405 -13 212 -97 353 -246 412 -51 20 -76 22 -303
26 -201 3 -249 1 -253 -10z m458 -202 c41 -17 71 -50 94 -101 13 -31 17 -68
17 -170 0 -114 -3 -137 -23 -182 -35 -80 -66 -95 -212 -101 l-119 -5 0 287 0
286 105 0 c67 0 117 -5 138 -14z"/>
<path d="M4802 2078 c-14 -14 -17 -914 -4 -936 7 -9 87 -12 368 -10 l359 3 0
90 0 90 -252 3 -253 2 0 105 0 105 219 0 c175 0 221 3 230 14 8 9 11 45 9 98
l-3 83 -227 3 -228 2 0 80 0 80 234 0 c200 0 237 2 250 16 20 19 23 153 4 172
-17 17 -689 17 -706 0z"/>
<path d="M5695 2078 c-3 -7 -4 -222 -3 -478 l3 -465 105 0 105 0 3 188 2 187
54 0 c75 0 94 -19 227 -216 l110 -164 120 0 c97 0 121 3 125 15 9 21 -161 288
-222 350 l-52 52 40 12 c49 15 112 71 141 125 17 33 22 58 22 126 0 73 -4 92
-27 137 -31 58 -73 94 -139 120 -60 23 -606 33 -614 11z m529 -213 c35 -33 36
-92 2 -132 -24 -28 -24 -28 -170 -31 l-146 -4 0 96 0 96 144 0 c138 0 144 -1
170 -25z"/>
<path d="M6662 2078 c-19 -19 -17 -921 2 -937 9 -8 48 -11 112 -9 l99 3 3 192
2 193 188 2 187 3 3 83 c2 53 -1 89 -9 98 -9 11 -49 14 -190 14 l-179 0 0 85
0 85 209 0 c177 0 212 2 225 16 20 19 23 153 4 172 -17 17 -639 17 -656 0z"/>
<path d="M7480 2075 c-9 -11 -11 -94 -8 -352 6 -374 10 -405 71 -485 44 -57
108 -95 192 -113 171 -36 335 -2 424 87 78 77 91 159 91 573 0 206 -3 284 -12
293 -8 8 -46 12 -103 12 -57 0 -95 -4 -103 -12 -9 -9 -12 -98 -12 -338 0 -365
-2 -378 -70 -413 -47 -24 -148 -19 -187 9 -61 45 -63 57 -63 410 0 235 -3 323
-12 332 -19 19 -192 16 -208 -3z"/>
<path d="M8452 2068 c-19 -19 -17 -911 2 -927 9 -8 108 -11 342 -9 l329 3 0
90 0 90 -227 3 -228 2 -2 378 -3 377 -100 3 c-70 2 -104 -1 -113 -10z"/>
<path d="M1982 1001 c-93 -32 -145 -99 -145 -186 0 -57 18 -98 60 -136 40 -38
80 -56 184 -84 113 -30 139 -46 139 -85 0 -44 -40 -70 -107 -70 -76 0 -108 20
-130 79 l-17 49 -40 -5 c-78 -8 -105 -14 -111 -24 -14 -21 27 -121 66 -164 57
-61 111 -80 229 -80 77 1 105 5 145 23 65 30 83 47 111 107 39 82 28 167 -29
232 -38 43 -82 64 -196 93 -112 28 -141 44 -141 76 0 19 8 28 35 40 72 30 136
11 159 -47 l16 -39 67 0 c87 0 98 7 88 56 -10 53 -28 86 -69 122 -69 60 -209
79 -314 43z"/>
<path d="M2993 1001 c-131 -45 -209 -148 -228 -301 -8 -70 15 -186 50 -245 34
-60 107 -121 168 -142 119 -41 303 -13 400 61 l42 32 3 133 c2 90 -1 138 -9
147 -17 20 -291 20 -308 0 -7 -9 -11 -38 -9 -73 l3 -58 78 -3 78 -3 -3 -32
c-7 -72 -169 -104 -246 -48 -61 43 -91 147 -72 249 18 100 76 152 169 152 67
0 112 -24 132 -69 16 -35 18 -35 106 -20 57 10 63 13 63 35 0 38 -35 98 -80
137 -75 64 -228 86 -337 48z"/>
<path d="M4413 1011 c-88 -23 -142 -74 -164 -153 -19 -72 17 -159 83 -203 20
-14 86 -39 145 -56 60 -17 118 -37 131 -45 29 -19 28 -58 -3 -89 -20 -21 -34
-25 -80 -25 -85 0 -122 27 -147 110 -5 16 -92 16 -136 -1 -22 -8 -23 -13 -17
-47 26 -143 153 -223 329 -209 179 15 276 138 232 290 -27 93 -74 123 -287
181 -105 29 -127 71 -52 102 72 31 163 -7 163 -67 0 -17 8 -19 73 -19 97 0
103 5 87 68 -15 63 -66 124 -122 147 -48 19 -186 29 -235 16z"/>
<path d="M5405 1007 c-100 -34 -168 -98 -205 -193 -32 -81 -34 -234 -5 -313
58 -158 225 -241 393 -196 56 16 75 27 118 70 35 35 56 67 68 103 10 30 16 55
15 57 -10 9 -144 43 -151 39 -5 -3 -16 -23 -25 -45 -47 -118 -189 -121 -250
-5 -25 47 -24 208 1 264 25 55 69 82 133 82 59 0 98 -25 120 -78 11 -28 18
-33 36 -28 12 3 45 11 74 17 29 7 54 17 57 24 8 22 -40 109 -78 143 -20 17
-53 39 -74 48 -50 21 -177 27 -227 11z"/>
<path d="M6110 1007 c-168 -48 -258 -214 -229 -422 18 -131 75 -211 189 -264
71 -33 196 -36 280 -7 74 26 157 110 185 186 28 77 28 233 0 309 -27 73 -100
152 -167 181 -64 28 -192 36 -258 17z m200 -159 c61 -42 89 -132 76 -242 -8
-63 -36 -110 -86 -144 -29 -20 -44 -23 -93 -20 -69 5 -103 27 -135 89 -20 39
-23 56 -20 141 2 79 7 102 24 125 38 51 81 73 144 73 43 0 65 -6 90 -22z"/>
<path d="M488 1004 c-5 -4 -8 -159 -8 -344 0 -287 2 -339 15 -350 11 -9 60
-11 187 -8 201 5 252 20 313 91 59 69 79 135 79 262 -1 128 -23 202 -81 266
-66 73 -103 83 -313 87 -102 2 -188 0 -192 -4z m352 -160 c15 -10 35 -33 45
-52 38 -81 27 -255 -20 -310 -22 -25 -29 -27 -119 -30 l-96 -4 0 206 0 206 81
0 c57 0 89 -5 109 -16z"/>
<path d="M1197 1003 c-4 -3 -7 -161 -7 -349 l0 -344 23 -5 c12 -3 132 -4 267
-3 l245 3 0 70 0 70 -182 3 -183 2 0 75 0 75 159 0 c183 0 184 0 179 82 l-3
53 -167 3 -168 2 0 60 0 60 168 0 c92 0 173 4 180 9 9 5 12 27 10 72 l-3 64
-256 3 c-140 1 -258 -1 -262 -5z"/>
<path d="M2502 998 c-19 -19 -17 -671 2 -687 9 -7 41 -11 83 -9 l68 3 0 350 0
350 -70 3 c-46 2 -74 -1 -83 -10z"/>
<path d="M3555 998 c-3 -7 -4 -166 -3 -353 l3 -340 70 0 70 0 5 200 5 200 114
-185 c63 -102 121 -193 129 -203 13 -15 29 -17 86 -15 l71 3 0 350 0 350 -70
0 -70 0 -5 -204 -5 -204 -125 204 -125 204 -73 3 c-52 2 -74 -1 -77 -10z"/>
<path d="M6667 1003 c-4 -3 -7 -160 -7 -349 0 -302 2 -343 16 -348 28 -11 120
-6 132 6 8 8 12 69 13 202 l1 191 51 -200 52 -200 72 -3 c61 -2 73 0 81 15 5
10 31 106 58 213 l49 195 5 -210 5 -210 70 0 70 0 0 350 0 350 -111 3 -112 3
-20 -78 c-12 -43 -37 -136 -56 -208 -18 -71 -36 -123 -39 -115 -3 8 -27 94
-52 190 -25 96 -48 183 -51 193 -5 15 -19 17 -113 17 -59 0 -111 -3 -114 -7z"/>
<path d="M7767 1003 c-4 -3 -7 -161 -7 -349 l0 -344 26 -6 c14 -4 112 -5 218
-2 175 4 196 6 240 27 54 27 89 73 106 142 16 64 -1 122 -51 172 l-39 39 27
35 c31 41 43 126 23 173 -20 49 -81 96 -139 109 -56 12 -393 15 -404 4z m380
-159 c19 -26 16 -61 -7 -84 -17 -17 -33 -20 -115 -20 l-95 0 0 66 0 67 102 -6
c82 -4 105 -9 115 -23z m15 -272 c26 -26 28 -75 3 -102 -16 -18 -31 -20 -127
-20 l-108 0 0 76 0 77 106 -5 c90 -4 108 -8 126 -26z"/>
<path d="M8475 998 c-3 -7 -4 -166 -3 -353 l3 -340 75 0 75 0 3 138 3 137 42
0 c55 0 68 -12 167 -161 l80 -119 86 0 c63 0 86 4 90 14 7 18 -113 209 -160
257 l-36 35 45 22 c27 13 55 37 72 64 24 36 28 52 28 113 0 62 -4 77 -28 114
-50 75 -86 85 -329 89 -169 3 -209 1 -213 -10z m389 -160 c22 -31 20 -71 -4
-93 -16 -14 -42 -19 -125 -23 l-105 -5 0 72 0 71 109 0 c102 0 111 -2 125 -22z"/>
<path d="M4912 383 l3 -78 66 -3 c83 -4 91 5 87 90 l-3 63 -78 3 -78 3 3 -78z"/>
<path d="M7477 454 c-4 -4 -7 -38 -7 -75 0 -79 4 -83 101 -77 l54 3 0 75 0 75
-70 3 c-39 1 -74 0 -78 -4z"/>
</g>
</svg>
